<svg width="111" height="40" viewBox="0 0 111 40" fill="none" xmlns="http://www.w3.org/2000/svg">
<g filter="url(#filter0_d_1156_890)">
<path d="M58.3372 8.04048C58.3372 9.19374 57.4079 10.1224 56.2546 10.1224C55.1014 10.1224 54.1728 9.19374 54.1728 8.04048C54.1728 6.88723 55.0697 5.9586 56.2546 5.9586C57.4405 5.9906 58.3372 6.91955 58.3372 8.04048ZM49.7524 12.2369V12.7495C49.7524 12.7495 48.7598 11.4676 46.6456 11.4676C43.1544 11.4676 40.4313 14.1264 40.4313 17.8099C40.4313 21.4617 43.1224 24.1522 46.6456 24.1522C48.7918 24.1522 49.7524 22.8389 49.7524 22.8389V23.3832C49.7524 23.6395 49.945 23.8312 50.201 23.8312H52.7952V11.787H50.201C49.945 11.7879 49.7524 12.0126 49.7524 12.2369ZM49.7524 19.9561C49.2724 20.661 48.3111 21.2697 47.1582 21.2697C45.1083 21.2697 43.5384 19.9884 43.5384 17.8099C43.5384 15.6317 45.1083 14.3504 47.1582 14.3504C48.2794 14.3504 49.3044 14.9911 49.7524 15.6637V19.9561ZM54.7174 11.7879H57.7922V23.8322H54.7174V11.7879ZM100.651 11.4673C98.5367 11.4673 97.5434 12.7492 97.5434 12.7492V5.9906H94.4686V23.8322H97.0634C97.3197 23.8322 97.5114 23.6078 97.5114 23.3835V22.8392C97.5114 22.8392 98.5047 24.1525 100.618 24.1525C104.11 24.1525 106.833 21.4626 106.833 17.8108C106.833 14.1591 104.11 11.4673 100.651 11.4673ZM100.138 21.2373C98.9527 21.2373 98.024 20.6293 97.5434 19.9241V15.6317C98.024 14.9911 99.049 14.3184 100.138 14.3184C102.188 14.3184 103.758 15.5997 103.758 17.7779C103.758 19.9561 102.188 21.2373 100.138 21.2373ZM92.8674 16.6893V23.8642H89.7919V17.0413C89.7919 15.0557 89.1513 14.2544 87.4227 14.2544C86.494 14.2544 85.5328 14.7351 84.9232 15.44V23.8325H81.849V11.7882H84.2826C84.5389 11.7882 84.7312 12.0126 84.7312 12.2369V12.7495C85.6281 11.8202 86.8131 11.4676 87.998 11.4676C89.3436 11.4676 90.4648 11.8526 91.3618 12.6212C92.4504 13.5181 92.8674 14.6711 92.8674 16.6893ZM74.3845 11.4673C72.271 11.4673 71.2777 12.7492 71.2777 12.7492V5.9906H68.2029V23.8322H70.7971C71.0534 23.8322 71.2457 23.6078 71.2457 23.3835V22.8392C71.2457 22.8392 72.239 24.1525 74.3525 24.1525C77.8443 24.1525 80.5668 21.4626 80.5668 17.8108C80.5988 14.1588 77.8763 11.4673 74.3845 11.4673ZM73.8719 21.2373C72.687 21.2373 71.7583 20.6293 71.2777 19.9241V15.6317C71.7583 14.9911 72.7833 14.3184 73.8719 14.3184C75.9224 14.3184 77.4916 15.5997 77.4916 17.7779C77.4916 19.9561 75.9224 21.2373 73.8719 21.2373ZM65.5441 11.4673C66.4727 11.4673 66.9533 11.6279 66.9533 11.6279V14.4784C66.9533 14.4784 64.3908 13.6135 62.7896 15.4397V23.8638H59.7141V11.7879H62.3089C62.5652 11.7879 62.7569 12.0122 62.7569 12.2366V12.7492C63.3342 12.0762 64.5834 11.4673 65.5441 11.4673ZM33.609 22.7429C33.449 22.3586 33.2887 21.9423 33.1287 21.5897C32.8721 21.0133 32.6158 20.4684 32.3921 19.9561L32.3601 19.9241C30.1496 15.1191 27.7797 10.2507 25.2809 5.4463L25.1849 5.25365C24.9221 4.75525 24.6659 4.25336 24.4166 3.74809C24.0959 3.17114 23.7759 2.56315 23.2633 1.9862C22.2384 0.704946 20.7648 0 19.1956 0C17.5937 0 16.1524 0.70495 15.0958 1.92189C14.6152 2.49819 14.2625 3.10683 13.9425 3.68377C13.6926 4.18872 13.4364 4.69061 13.1742 5.18934L13.0779 5.38197C10.6114 10.1864 8.20922 15.0551 5.99902 19.8598L5.96671 19.9234C5.74271 20.4367 5.48607 20.981 5.22976 21.557C5.06976 21.9096 4.90977 22.294 4.74977 22.7103C4.33314 23.8952 4.20481 25.0165 4.36545 26.17C4.71776 28.5726 6.31901 30.5898 8.52953 31.4874C9.36247 31.84 10.2274 32 11.124 32C11.3803 32 11.7004 31.968 11.957 31.9357C13.0142 31.8077 14.1032 31.4557 15.1604 30.8471C16.4737 30.1101 17.7229 29.0535 19.1322 27.5159C20.5414 29.0535 21.8227 30.1101 23.104 30.8471C24.1615 31.4557 25.2501 31.8077 26.3071 31.9357C26.5634 31.9683 26.884 32 27.1404 32C28.0373 32 28.9339 31.84 29.7345 31.4874C31.9771 30.5898 33.5463 28.5406 33.8989 26.17C34.1533 25.0491 34.0253 23.9285 33.609 22.7429ZM19.1632 24.4085C17.4334 22.2303 16.3121 20.1804 15.9281 18.4512C15.7681 17.7142 15.7358 17.0736 15.8321 16.497C15.8958 15.9843 16.0884 15.5357 16.3447 15.1514C16.9534 14.2871 17.9783 13.7421 19.1636 13.7421C20.3491 13.7421 21.4061 14.2548 21.9827 15.1514C22.239 15.5357 22.431 15.9846 22.4957 16.497C22.5913 17.0739 22.5593 17.7462 22.3993 18.4512C22.0137 20.1484 20.8925 22.1986 19.1632 24.4085ZM31.9431 25.914C31.7191 27.5796 30.5979 29.0215 29.0286 29.6621C28.26 29.9821 27.4267 30.0784 26.5944 29.9821C25.7938 29.8858 24.9926 29.6295 24.1603 29.1495C23.007 28.5082 21.8541 27.5159 20.5085 26.042C22.6224 23.4478 23.9036 21.077 24.3843 18.9635C24.6086 17.9702 24.6409 17.0736 24.5443 16.2403C24.4166 15.4397 24.1279 14.7027 23.6796 14.0621C22.686 12.6202 21.0202 11.7879 19.1629 11.7879C17.3057 11.7879 15.6398 12.6529 14.6468 14.0621C14.1985 14.7027 13.9099 15.4397 13.7819 16.2403C13.6539 17.0736 13.6856 18.0022 13.9419 18.9635C14.4222 21.077 15.7355 23.4795 17.8173 26.074C16.5041 27.5476 15.3188 28.5409 14.1656 29.1815C13.3326 29.6621 12.5323 29.9184 11.7317 30.0141C10.8671 30.1104 10.0338 29.9821 9.2972 29.6941C7.72795 29.0535 6.60669 27.6116 6.3827 25.946C6.2867 25.1454 6.35038 24.3448 6.67101 23.4478C6.76669 23.1272 6.92732 22.8072 7.08732 22.4229C7.31164 21.9103 7.56731 21.3653 7.82395 20.821L7.85627 20.7573C10.0661 15.9843 12.4363 11.1156 14.9028 6.37523L14.9988 6.1826C15.2555 5.70261 15.5118 5.18998 15.7678 4.70935C16.0241 4.19672 16.3121 3.71609 16.6647 3.29945C17.3374 2.53147 18.234 2.11452 19.2272 2.11452C20.2205 2.11452 21.1171 2.53147 21.7897 3.29945C22.1424 3.71705 22.4304 4.19768 22.6867 4.70935C22.9433 5.18998 23.1996 5.70261 23.4553 6.1826L23.5516 6.37523C25.9805 11.1353 28.3192 15.9409 30.5665 20.7893V20.8213C30.8232 21.3346 31.0472 21.9106 31.3035 22.4239C31.4635 22.8075 31.6238 23.1275 31.7198 23.4482C31.9755 24.2802 32.0715 25.0814 31.9431 25.914Z" fill="#191825" fill-opacity="0.5"/>
</g>
<defs>
<filter id="filter0_d_1156_890" x="0.298462" y="0" width="110.534" height="40" filterUnits="userSpaceOnUse" color-interpolation-filters="sRGB">
<feFlood flood-opacity="0" result="BackgroundImageFix"/>
<feColorMatrix in="SourceAlpha" type="matrix" values="0 0 0 0 0 0 0 0 0 0 0 0 0 0 0 0 0 0 127 0" result="hardAlpha"/>
<feOffset dy="4"/>
<feGaussianBlur stdDeviation="2"/>
<feComposite in2="hardAlpha" operator="out"/>
<feColorMatrix type="matrix" values="0 0 0 0 0 0 0 0 0 0 0 0 0 0 0 0 0 0 0.25 0"/>
<feBlend mode="normal" in2="BackgroundImageFix" result="effect1_dropShadow_1156_890"/>
<feBlend mode="normal" in="SourceGraphic" in2="effect1_dropShadow_1156_890" result="shape"/>
</filter>
</defs>
</svg>
