<svg width="189" height="32" viewBox="0 0 189 32" fill="none" xmlns="http://www.w3.org/2000/svg">
<mask id="mask0_1156_831" style="mask-type:luminance" maskUnits="userSpaceOnUse" x="0" y="0" width="189" height="32">
<path d="M188.696 0H0.0926514V32H188.696V0Z" fill="white"/>
</mask>
<g mask="url(#mask0_1156_831)">
<mask id="mask1_1156_831" style="mask-type:luminance" maskUnits="userSpaceOnUse" x="0" y="0" width="189" height="32">
<path d="M188.696 0H0.0926514V32H188.696V0Z" fill="white"/>
</mask>
<g mask="url(#mask1_1156_831)">
<path d="M74.0497 3.50239C74.0497 1.9221 75.3316 0.632812 76.9193 0.632812C78.4995 0.632812 79.7888 1.91473 79.7888 3.50239C79.7336 5.08268 78.4001 6.31671 76.8161 6.26145C75.3132 6.2062 74.1086 5.00164 74.0497 3.50239Z" fill="#191825" fill-opacity="0.5"/>
</g>
<mask id="mask2_1156_831" style="mask-type:luminance" maskUnits="userSpaceOnUse" x="0" y="0" width="189" height="32">
<path d="M188.696 0H0.0926514V32H188.696V0Z" fill="white"/>
</mask>
<g mask="url(#mask2_1156_831)">
<path d="M119.274 22.6191C119.274 21.0278 120.556 19.7422 122.132 19.7422C123.72 19.7422 125.006 21.0278 125.006 22.6191C125.006 24.2068 123.72 25.4924 122.132 25.4924C120.556 25.4924 119.274 24.2031 119.274 22.6191Z" fill="#191825" fill-opacity="0.5"/>
</g>
<mask id="mask3_1156_831" style="mask-type:luminance" maskUnits="userSpaceOnUse" x="0" y="0" width="189" height="32">
<path d="M188.696 0H0.0926514V32H188.696V0Z" fill="white"/>
</mask>
<g mask="url(#mask3_1156_831)">
<path d="M27.0205 21.3775C24.5561 21.3775 22.8359 19.4178 22.8359 16.6145C22.8359 13.815 24.5524 11.8553 27.0205 11.8553C29.4996 11.8553 31.2383 13.815 31.2383 16.6145C31.2346 19.462 29.5401 21.3775 27.0205 21.3775ZM27.0205 7.67061C21.8007 7.67061 18.0103 11.4316 18.0103 16.6145C18.0103 21.7975 21.8044 25.5585 27.0205 25.5585C32.266 25.5585 36.0676 21.7975 36.0676 16.6182C36.0676 11.4316 32.2587 7.67061 27.0205 7.67061ZM68.5023 17.064C68.3218 16.714 68.0897 16.3862 67.8208 16.0988L67.6624 15.9331L67.8281 15.7747C68.0676 15.5205 68.3144 15.2221 68.5465 14.8759L73.1547 8.02424H67.5592L64.0966 13.384C63.9014 13.675 63.5072 13.8113 62.9141 13.8113H62.1221V3.67751C62.1221 1.65149 60.8623 1.37891 59.4957 1.37891H57.1602L57.1639 25.2933H62.1185V18.1249H62.5826C63.1462 18.1249 63.5293 18.1912 63.7098 18.4969L66.4431 23.6577C67.2093 25.0575 67.9681 25.2969 69.3974 25.2969H73.2063L70.3736 20.6224L68.5023 17.064ZM92.5713 7.63377C90.048 7.63377 88.4383 8.7536 87.5394 9.70399L87.2411 10.0097L87.1342 9.59716C86.869 8.58047 85.9776 8.02792 84.633 8.02792H82.4118L82.4265 25.2969H87.3516V17.3402C87.3516 16.5593 87.451 15.8889 87.6573 15.27C88.2062 13.4061 89.7349 12.242 91.643 12.242C93.1791 12.242 93.7832 13.0524 93.7832 15.1521V22.6742C93.7832 24.4607 94.6084 25.3006 96.4023 25.3006H98.7415L98.7304 14.3159C98.7304 9.93606 96.5976 7.63377 92.5713 7.63377ZM76.9821 8.02424H74.6466L74.6613 21.3775V25.2933H77.1515L77.2399 25.2969L78.4039 25.2933H79.5569V25.2896H79.568L79.579 10.6507C79.5717 8.88253 78.7281 8.02424 76.9821 8.02424ZM46.3561 21.3775C43.8917 21.3775 42.1714 19.4178 42.1714 16.6145C42.1714 13.815 43.8917 11.8553 46.3561 11.8553C48.8315 11.8553 50.5739 13.815 50.5739 16.6145C50.5702 19.462 48.8757 21.3775 46.3561 21.3775ZM46.3561 7.67061C41.1326 7.67061 37.3384 11.4316 37.3384 16.6145C37.3384 21.7975 41.1326 25.5585 46.3561 25.5585C51.5905 25.5585 55.4031 21.7975 55.4031 16.6182C55.4031 11.4316 51.5942 7.67061 46.3561 7.67061Z" fill="#191825" fill-opacity="0.5"/>
</g>
</g>
<mask id="mask4_1156_831" style="mask-type:luminance" maskUnits="userSpaceOnUse" x="0" y="0" width="189" height="32">
<path d="M188.696 0H0.0926514V32H188.696V0Z" fill="white"/>
</mask>
<g mask="url(#mask4_1156_831)">
<mask id="mask5_1156_831" style="mask-type:luminance" maskUnits="userSpaceOnUse" x="0" y="0" width="189" height="32">
<path d="M188.656 0.628906H0.0926514V31.9585H188.656V0.628906Z" fill="white"/>
</mask>
<g mask="url(#mask5_1156_831)">
<mask id="mask6_1156_831" style="mask-type:luminance" maskUnits="userSpaceOnUse" x="0" y="0" width="189" height="32">
<path d="M188.696 0H0.0926514V32H188.696V0Z" fill="white"/>
</mask>
<g mask="url(#mask6_1156_831)">
<path d="M151.885 21.3749C149.421 21.3749 147.701 19.4152 147.701 16.6119C147.701 13.8123 149.421 11.8526 151.885 11.8526C154.364 11.8526 156.103 13.8123 156.103 16.6119C156.103 19.4594 154.405 21.3749 151.885 21.3749ZM151.885 7.66797C146.662 7.66797 142.868 11.429 142.868 16.6119C142.868 21.7948 146.654 25.5558 151.885 25.5558C157.123 25.5558 160.932 21.7948 160.932 16.6156C160.932 11.429 157.12 7.66797 151.885 7.66797Z" fill="#191825" fill-opacity="0.5"/>
</g>
<mask id="mask7_1156_831" style="mask-type:luminance" maskUnits="userSpaceOnUse" x="0" y="0" width="189" height="32">
<path d="M188.696 0H0.0926514V32H188.696V0Z" fill="white"/>
</mask>
<g mask="url(#mask7_1156_831)">
<path d="M109.107 20.6118C106.414 20.6118 105.46 18.2653 105.46 16.0662C105.46 15.0937 105.707 11.9368 108.856 11.9368C110.418 11.9368 112.5 12.3862 112.5 16.2246C112.496 19.853 110.65 20.6118 109.107 20.6118ZM115.052 7.98054C114.117 7.98054 113.398 8.35259 113.037 9.03406L112.905 9.29929L112.676 9.09669C111.881 8.40784 110.455 7.59375 108.146 7.59375C103.541 7.59375 100.443 11.049 100.443 16.1988C100.443 21.3412 103.651 24.9328 108.241 24.9328C109.807 24.9328 111.048 24.5644 112.028 23.8203L112.404 23.5367V24.0155C112.404 26.3252 110.912 27.5961 108.208 27.5961C106.889 27.5961 105.696 27.2756 104.897 26.9846C103.854 26.6678 103.239 26.933 102.819 27.9755L102.425 28.9406L101.872 30.3514L102.215 30.5319C103.946 31.4529 106.201 31.998 108.234 31.998C112.426 31.998 117.322 29.8541 117.322 23.8129L117.336 7.96949H115.052" fill="#191825" fill-opacity="0.5"/>
</g>
</g>
</g>
<mask id="mask8_1156_831" style="mask-type:luminance" maskUnits="userSpaceOnUse" x="0" y="0" width="189" height="32">
<path d="M188.696 0H0.0926514V32H188.696V0Z" fill="white"/>
</mask>
<g mask="url(#mask8_1156_831)">
<mask id="mask9_1156_831" style="mask-type:luminance" maskUnits="userSpaceOnUse" x="0" y="0" width="189" height="32">
<path d="M188.696 0H0.0926514V32H188.696V0Z" fill="white"/>
</mask>
<g mask="url(#mask9_1156_831)">
<path d="M8.68664 21.1754L4.67513 21.1717V16.3829C4.67513 15.3552 5.07297 14.8284 5.946 14.7032H8.67928C10.6279 14.7032 11.8877 15.9335 11.8951 17.9227C11.8951 19.9671 10.6648 21.1754 8.68664 21.1754ZM4.67513 8.25307V6.99325C4.67513 5.88815 5.13927 5.36508 6.16702 5.29877H8.21882C9.97593 5.29877 11.0295 6.3523 11.0295 8.11309C11.0295 9.45763 10.3075 11.0232 8.28144 11.0232H4.67513V8.25307ZM13.7996 13.0345L13.0776 12.6256L13.7075 12.0841C14.4479 11.4542 15.6746 10.0286 15.6746 7.57159C15.6746 3.81057 12.7608 1.38672 8.24829 1.38672H2.5165C1.17933 1.43461 0.107386 2.52865 0.0926514 3.86582V25.2016H8.35511C13.3723 25.2016 16.6065 22.472 16.6065 18.2432C16.6065 15.974 15.5567 14.0254 13.7996 13.0345Z" fill="#191825" fill-opacity="0.5"/>
</g>
<mask id="mask10_1156_831" style="mask-type:luminance" maskUnits="userSpaceOnUse" x="0" y="0" width="189" height="32">
<path d="M188.696 0H0.0926514V32H188.696V0Z" fill="white"/>
</mask>
<g mask="url(#mask10_1156_831)">
<path d="M182.924 7.68728C180.869 7.69096 178.92 8.63766 177.638 10.2511L177.281 10.7005L177.001 10.1959C176.087 8.53084 174.522 7.69096 172.334 7.69096C170.046 7.69096 168.51 8.96551 167.795 9.72803L167.331 10.2327L167.151 9.56595C166.893 8.60819 166.038 8.08143 164.749 8.08143H162.679L162.657 25.2842H167.357V17.6884C167.357 17.0217 167.438 16.366 167.604 15.6771C168.053 13.8427 169.287 11.8682 171.361 12.0635C172.636 12.1887 173.262 13.1759 173.262 15.0804V25.2805H177.995V17.6847C177.995 16.8522 178.073 16.226 178.261 15.6072C178.636 13.8537 179.929 12.0561 181.93 12.0561C183.377 12.0561 183.915 12.8739 183.915 15.0804V22.7645C183.915 24.4995 184.689 25.2805 186.427 25.2805H188.637L188.641 14.2995C188.656 9.90853 186.722 7.68728 182.924 7.68728ZM140.146 19.3092C140.131 19.324 138.109 21.4605 135.445 21.4605C133.018 21.4605 130.568 19.9723 130.568 16.6496C130.568 13.7801 132.469 11.7725 135.191 11.7725C136.075 11.7725 137.077 12.0893 137.236 12.6197L137.258 12.7081C137.464 13.4633 138.153 13.9827 138.93 13.979L141.505 13.9827V11.7283C141.505 8.75554 137.729 7.68359 135.184 7.68359C129.747 7.68359 125.805 11.4667 125.805 16.6791C125.805 21.8878 129.706 25.6709 135.084 25.6709C139.752 25.6709 142.286 22.6024 142.312 22.5767L142.444 22.4109L140.404 19.0256L140.146 19.3092Z" fill="#191825" fill-opacity="0.5"/>
</g>
</g>
</svg>
