<svg width="114" height="32" viewBox="0 0 114 32" fill="none" xmlns="http://www.w3.org/2000/svg">
<path d="M54.7705 25.0383H51.2555C51.2332 25.0383 51.2332 25.0383 51.2221 25.0271L48.1966 21.3342L45.171 25.0271C45.1599 25.0383 45.1488 25.0383 45.1376 25.0383H42.3234C42.3012 25.0383 42.2901 25.0271 42.2789 25.016C42.2789 25.0049 42.2789 24.9827 42.2901 24.9715L46.7505 19.4988L42.3457 14.0818C42.3345 14.0595 42.3345 14.0484 42.3345 14.0262C42.3457 14.015 42.3568 14.0039 42.3679 14.0039H45.8829C45.894 14.0039 45.9051 14.015 45.9163 14.0262L48.5747 17.3187L51.2777 14.0262C51.2888 14.015 51.3 14.0039 51.3111 14.0039H54.1698C54.1809 14.0039 54.2032 14.015 54.2143 14.0262C54.2254 14.0484 54.2143 14.0595 54.2032 14.0818L50.0319 19.0984L54.8149 24.9715C54.8261 24.9827 54.8261 25.0049 54.8261 25.016C54.8038 25.0383 54.7927 25.0383 54.7705 25.0383Z" fill="#191825" fill-opacity="0.5"/>
<path d="M73.7804 15.9384C72.2231 15.9384 71.1664 16.8839 70.8549 18.519H76.1496V18.4078C76.1496 17.1063 75.1819 15.9384 73.7804 15.9384ZM78.8749 20.2098C78.8637 20.2209 78.8526 20.232 78.8415 20.232H70.7993C70.9662 22.1007 72.1786 23.1686 74.1474 23.1686C75.3599 23.1686 76.6502 22.757 78.4633 21.7893C78.4967 21.767 78.53 21.8004 78.53 21.8338V24.3032C78.53 24.3254 78.5189 24.3365 78.5078 24.3365C76.817 25.0484 75.1152 25.5378 73.7804 25.5378C70.321 25.5378 67.8071 23.0128 67.8071 19.5424C67.8071 16.0719 70.321 13.5469 73.7804 13.5469C76.9394 13.5469 78.9638 15.6714 78.9638 18.5969C78.9638 19.0752 78.886 20.1764 78.8749 20.2098Z" fill="#191825" fill-opacity="0.5"/>
<path d="M95.2038 11.7112C94.2138 11.7112 93.413 10.9215 93.413 9.95373C93.413 8.95263 94.2138 8.14062 95.2038 8.14062C96.1938 8.14062 96.9947 8.95263 96.9947 9.95373C96.9947 10.9215 96.1938 11.7112 95.2038 11.7112ZM93.7578 25.037C93.7244 25.037 93.7133 25.0259 93.7133 24.9925V14.036C93.7133 14.0138 93.7244 13.9915 93.7467 13.9915H96.6499C96.6721 13.9915 96.6832 14.0138 96.6832 14.036V24.9925C96.6832 25.0259 96.661 25.037 96.6387 25.037H93.7578Z" fill="#191825" fill-opacity="0.5"/>
<path d="M60.0873 23.391C59.5645 23.391 59.0306 23.3132 58.4077 23.1574L58.4188 16.1275C59.1418 15.8939 59.7647 15.7938 60.3876 15.7938C62.401 15.7938 63.7469 17.2732 63.7469 19.4867C63.7469 21.856 62.312 23.391 60.0873 23.391ZM60.8771 13.5469C60.0539 13.5469 59.2308 13.6915 58.3632 13.9918H55.4711C55.4489 13.9918 55.4266 14.0141 55.4266 14.0363V32.0005C56.2943 31.8782 57.3621 31.5667 58.4077 30.8326V25.371C59.1196 25.4711 59.7091 25.5378 60.2764 25.5378C64.2363 25.5378 66.7947 23.1686 66.7947 19.4979C66.7947 15.994 64.3587 13.5469 60.8771 13.5469Z" fill="#191825" fill-opacity="0.5"/>
<path d="M88.4742 22.4771C87.5732 22.9554 86.7612 23.1779 86.0048 23.1779C84.2139 23.1779 83.135 21.9098 83.135 19.7852C83.135 17.3381 84.5031 15.7475 86.6277 15.7475C87.2172 15.7475 87.7845 15.8921 88.4742 16.2035V22.4771ZM88.4742 8.1947V13.9232C87.6288 13.6785 86.8835 13.5673 86.1271 13.5673C82.6789 13.5673 80.0872 16.159 80.0872 19.6073C80.0872 23.0332 82.3786 25.5249 85.5376 25.5249C86.6277 25.5249 87.651 25.2468 88.8524 24.635V25.625C89.6421 25.4693 90.5542 25.1578 91.4552 24.5127V7.01562C90.5765 7.13798 89.5309 7.43831 88.4742 8.1947Z" fill="#191825" fill-opacity="0.5"/>
<path d="M106.75 22.4579C105.871 22.9584 105.126 23.2031 104.459 23.2031C102.534 23.2031 101.388 21.9351 101.388 19.8105C101.388 17.3967 102.746 15.7727 104.759 15.7727C105.293 15.7727 105.949 15.9841 106.75 16.4068V22.4579ZM109.731 13.8595C109.731 13.7928 109.675 13.7372 109.609 13.7372H107.262C107.195 13.7372 107.128 13.7928 107.128 13.8595V14.26H107.072C105.994 13.7817 105.059 13.5703 104.158 13.5703C100.91 13.5703 98.3629 16.2622 98.3629 19.7104C98.3629 23.192 100.643 25.5279 104.036 25.5279C104.937 25.5279 106.105 25.4612 107.195 24.2154V25.628C107.962 25.4612 108.874 25.1386 109.731 24.5157V13.8595Z" fill="#191825" fill-opacity="0.5"/>
<path d="M34.2924 22.3002H41.5782C41.4669 23.1122 41.1888 24.0688 40.5659 25.0365H32.9909C32.0677 25.0365 31.3002 24.3135 31.2112 23.4125C31.2112 23.4014 31.2001 23.3902 31.2001 23.368V8.99663C31.2001 8.9855 31.2112 8.97438 31.2112 8.96326C31.3002 8.05114 32.0677 7.32812 32.9909 7.32812H41.567C41.4558 8.14013 41.1777 9.11898 40.5437 10.0867H34.2924V14.0021H40.4881C40.5103 14.0021 40.5326 14.0244 40.5326 14.0466V16.7607C40.5326 16.783 40.5103 16.8052 40.4881 16.8052H34.2924V22.3002Z" fill="#191825" fill-opacity="0.5"/>
<path d="M25.1714 25.2685C24.4484 25.2685 24.0034 24.7012 24.0034 24.0115C24.0034 23.2774 24.5151 22.7546 25.1714 22.7546C25.8165 22.7546 26.3282 23.2662 26.3282 24.0115C26.3282 24.7568 25.8165 25.2685 25.1714 25.2685ZM25.1714 22.6211C24.4373 22.6211 23.8032 23.1773 23.8032 24.0115C23.8032 24.8013 24.3705 25.4019 25.1714 25.4019C25.8944 25.4019 26.5284 24.8458 26.5284 24.0115C26.5284 23.1773 25.9055 22.6211 25.1714 22.6211Z" fill="#191825" fill-opacity="0.5"/>
<path d="M24.8485 23.9027V23.391H25.1933C25.3713 23.391 25.5715 23.4133 25.5715 23.6246C25.5715 23.8805 25.3824 23.8916 25.1711 23.8916C25.1599 23.9027 24.8485 23.9027 24.8485 23.9027ZM25.8162 23.658C25.8162 23.3243 25.616 23.1797 25.2156 23.1797H24.5927V24.8259H24.8596V24.1252H25.1154L25.5381 24.8259H25.8496L25.3935 24.1029C25.6382 24.0807 25.8162 23.9583 25.8162 23.658Z" fill="#191825" fill-opacity="0.5"/>
<path d="M112.133 15.8159C111.41 15.8159 110.965 15.2486 110.965 14.559C110.965 13.8248 111.477 13.302 112.133 13.302C112.779 13.302 113.29 13.8137 113.29 14.559C113.29 15.3042 112.779 15.8159 112.133 15.8159ZM112.133 13.1797C111.399 13.1797 110.765 13.7359 110.765 14.5701C110.765 15.3599 111.333 15.9605 112.133 15.9605C112.856 15.9605 113.49 15.4044 113.49 14.5701C113.49 13.7247 112.856 13.1797 112.133 13.1797Z" fill="#191825" fill-opacity="0.5"/>
<path d="M111.8 14.4463V13.9457H112.145C112.323 13.9457 112.523 13.968 112.523 14.1793C112.523 14.4351 112.334 14.4463 112.122 14.4463H111.8ZM112.779 14.2127C112.779 13.879 112.579 13.7344 112.178 13.7344H111.555V15.3806H111.822V14.6799H112.078L112.501 15.3806H112.812L112.356 14.6576C112.59 14.6354 112.779 14.513 112.779 14.2127Z" fill="#191825" fill-opacity="0.5"/>
<path d="M15.7719 10.0759L15.2491 8.58534L10.7553 2.58985L11.5562 2.38963L19.2869 9.07476L23.8363 7.77333C24.3703 7.63985 24.9821 7.60648 25.4381 7.60648C24.0143 4.52531 21.3892 1.98919 17.941 0.765622C11.1224 -1.67039 3.6141 1.9002 1.18921 8.72994C0.432821 10.8434 0.26597 13.0236 0.577424 15.0925L11.4672 11.3106L15.7719 10.0759Z" fill="#191825" fill-opacity="0.5"/>
<path d="M25.9276 8.78516C25.5272 9.04099 24.9376 9.38582 24.3592 9.57491L19.7986 10.8763L16.762 20.6426L15.9722 20.8985L16.6174 13.4458L16.2614 11.8997L11.99 13.1233L0.688721 15.7595C1.58971 20.0976 4.65976 23.8907 9.14247 25.4813C15.9722 27.9173 23.4693 24.3467 25.9054 17.517C26.951 14.5915 26.8842 11.5215 25.9276 8.78516Z" fill="#191825" fill-opacity="0.5"/>
<path d="M16.2503 11.8894L16.6063 13.4355L15.9611 20.8882L16.7509 20.6323L19.7876 10.866L24.3481 9.56459C24.9265 9.37549 25.5161 9.04179 25.9165 8.77483C25.7719 8.37439 25.6162 7.98507 25.4382 7.59576C24.971 7.59576 24.3704 7.618 23.8365 7.76261L19.287 9.06404L11.5563 2.37891L10.7554 2.57913L15.2381 8.57461L15.7609 10.0651L11.4562 11.2998L0.566406 15.0818C0.599776 15.3042 0.64427 15.5378 0.688763 15.7603L11.979 13.1018L16.2503 11.8894Z" fill="white"/>
</svg>
