<svg width="40" height="40" viewBox="0 0 40 40" fill="none" xmlns="http://www.w3.org/2000/svg">
<path d="M38.4 0H1.6C0.716344 0 0 0.832959 0 1.86047V4.65116C0 5.67867 0.716344 6.51163 1.6 6.51163H38.4C39.2837 6.51163 40 5.67867 40 4.65116V1.86047C40 0.832959 39.2837 0 38.4 0Z" fill="#5EA7FF"/>
<path d="M38.4 16.7441H1.6C0.716344 16.7441 0 17.5771 0 18.6046V21.3953C0 22.4228 0.716344 23.2558 1.6 23.2558H38.4C39.2837 23.2558 40 22.4228 40 21.3953V18.6046C40 17.5771 39.2837 16.7441 38.4 16.7441Z" fill="#5EA7FF"/>
<path d="M38.4 33.4883H1.6C0.716344 33.4883 0 34.3213 0 35.3488V38.1395C0 39.167 0.716344 40 1.6 40H38.4C39.2837 40 40 39.167 40 38.1395V35.3488C40 34.3213 39.2837 33.4883 38.4 33.4883Z" fill="#5EA7FF"/>
</svg>
