<?xml version="1.0" standalone="no"?>
<!DOCTYPE svg PUBLIC "-//W3C//DTD SVG 20010904//EN"
 "http://www.w3.org/TR/2001/REC-SVG-20010904/DTD/svg10.dtd">
<svg version="1.0" xmlns="http://www.w3.org/2000/svg"
 width="48.000000pt" height="48.000000pt" viewBox="0 0 48.000000 48.000000"
 preserveAspectRatio="xMidYMid meet">

<g transform="translate(0.000000,48.000000) scale(0.100000,-0.100000)"
fill="#000000" stroke="none">
<path d="M120 400 c0 -28 -2 -30 -40 -30 l-40 0 0 -155 0 -155 200 0 200 0 0
155 0 155 -40 0 c-38 0 -40 2 -40 30 l0 30 -120 0 -120 0 0 -30z m200 -20 c0
-6 -33 -10 -80 -10 -47 0 -80 4 -80 10 0 6 33 10 80 10 47 0 80 -4 80 -10z
m-155 -120 c0 -18 -6 -26 -23 -28 -24 -4 -38 18 -28 44 3 9 15 14 28 12 17 -2
23 -10 23 -28z m193 -47 c-30 -31 -33 -32 -50 -16 -18 16 -17 18 14 50 30 31
33 32 50 16 18 -16 17 -18 -14 -50z m-145 -101 c-25 -2 -47 -1 -50 2 -3 2 6
19 18 36 l24 31 27 -33 27 -33 -46 -3z"/>
</g>
</svg>
